<?xml version="1.0" encoding="utf-8"?>
<!-- Generator: Adobe Illustrator 23.0.1, SVG Export Plug-In . SVG Version: 6.00 Build 0)  -->
<svg version="1.1" id="e1212692-d39e-496f-931d-018692dccc58"
	 xmlns="http://www.w3.org/2000/svg" xmlns:xlink="http://www.w3.org/1999/xlink" x="0px" y="0px" viewBox="0 0 745.3 812"
	 style="enable-background:new 0 0 745.3 812;" xml:space="preserve">
<style type="text/css">
	.st0{fill:#3F3D56;}
	.st1{opacity:0.1;enable-background:new    ;}
	.st2{fill:#71A39A;}
	.st3{fill:#CFCCE0;}
	.st4{fill:#F2F2F2;}
	.st5{fill:#2F2E41;}
	.st6{fill:#FFB9B9;}
</style>
<title>yoga</title>
<path class="st0" d="M745.3,731.2c0,24.6-166.8,80.8-372.7,80.8S0,755.8,0,731.2s166.8-8.4,372.7-8.4S745.3,706.5,745.3,731.2z"/>
<path class="st1" d="M745.3,731.2c0,24.6-166.8,80.8-372.7,80.8S0,755.8,0,731.2s166.8-8.4,372.7-8.4S745.3,706.5,745.3,731.2z"/>
<circle class="st2" cx="106.1" cy="387.5" r="15.7"/>
<circle class="st2" cx="174.9" cy="516.5" r="15.7"/>
<circle class="st2" cx="121.8" cy="484" r="15.7"/>
<path class="st3" d="M126.8,706.5c-0.3-0.5-6.8-11.3-9.1-34c-2.1-20.8-0.7-55.8,17.4-104.6c34.4-92.5-7.9-167.1-8.4-167.8l2.1-1.2
	c0.1,0.2,11,19.2,17.5,49.5c8.5,40.2,5.4,81.9-8.9,120.4c-34.3,92.3-8.8,136-8.5,136.4L126.8,706.5z"/>
<path class="st3" d="M113.4,395.9c-9.3,0-16.9-7.6-16.9-16.9s7.6-16.9,16.9-16.9s16.9,7.6,16.9,16.9l0,0
	C130.2,388.3,122.7,395.9,113.4,395.9z M113.4,364.6c-8,0-14.5,6.5-14.5,14.5s6.5,14.5,14.5,14.5s14.5-6.5,14.5-14.5
	C127.8,371,121.4,364.6,113.4,364.6z"/>
<path class="st3" d="M129,492.4c-9.3,0-16.9-7.6-16.9-16.9s7.6-16.9,16.9-16.9s16.9,7.6,16.9,16.9S138.4,492.4,129,492.4z M129,461
	c-8,0-14.5,6.5-14.5,14.5S121,490,129,490s14.5-6.5,14.5-14.5S137,461,129,461L129,461z"/>
<path class="st3" d="M170.1,525c-9.3,0-16.9-7.6-16.9-16.9c0-9.3,7.6-16.9,16.9-16.9c9.3,0,16.9,7.6,16.9,16.9l0,0
	C186.9,517.4,179.4,525,170.1,525z M170.1,493.6c-8,0-14.5,6.5-14.5,14.5c0,8,6.5,14.5,14.5,14.5s14.5-6.5,14.5-14.5
	C184.5,500.1,178,493.6,170.1,493.6z"/>
<circle class="st3" cx="117" cy="558.7" r="15.7"/>
<path class="st3" d="M136.3,707.1c0,0-15.7-38.6,31.4-67.5L136.3,707.1z"/>
<path class="st3" d="M117,706.4c0,0-7.1-41-62.4-40.7L117,706.4z"/>
<path class="st2" d="M683,721.5H416.2c0,0-5.4-79.3,26.6-80.2s28.4,35.2,68.5-14.4s88.8-46.9,95.1-17.6S594.2,662,628,654.8
	S710.5,666.6,683,721.5z"/>
<path class="st4" d="M545.1,721.6h-0.9c2.1-52.2,13-85.8,21.8-104.8c9.6-20.6,18.8-28.9,18.9-29l0.6,0.7c-0.1,0.1-9.2,8.3-18.7,28.8
	C558.1,636.1,547.2,669.5,545.1,721.6z"/>
<path class="st4" d="M641.7,721.7l-0.9-0.3c10.4-35.8,35-58.4,35.2-58.6l0.6,0.7C676.4,663.7,652,686.2,641.7,721.7z"/>
<path class="st4" d="M458.2,721.6l-0.9-0.1c3.5-25.5-2.9-45.3-8.8-57.4c-6.5-13.1-13.9-20.3-13.9-20.3l0.6-0.7
	c0.1,0.1,7.6,7.3,14.1,20.6C455.3,675.9,461.8,695.9,458.2,721.6z"/>
<path class="st3" d="M719.2,722.8H387.4l-0.1-1.1c-0.2-2.8-4.4-68.8,17-92.3c4.8-5.3,10.5-8,17.1-8.2c13.9-0.4,22.7,4.8,29.8,9
	c13.3,7.9,22.1,13.1,54.1-26.4c34.6-42.8,72-52,93.5-46.9c13.9,3.3,23.4,12.7,26.2,25.7c2.7,12.3,1.8,23.9,1.1,33.2
	c-0.7,9.9-1.3,17.8,2.8,21.4c3.4,3,10.2,3.2,21.4,0.8c22.8-4.9,54.6-0.7,70.5,19.9c8.6,11.1,15.3,31.2-1.2,64.3L719.2,722.8z
	 M389.6,720.3h328.1c12.3-25,12.7-46.1,1.1-61.1c-14.6-18.9-45.3-23.9-68.1-19c-12.2,2.6-19.4,2.2-23.5-1.4
	c-5-4.4-4.4-12.7-3.6-23.4c0.7-9.1,1.5-20.5-1.1-32.5c-2.6-12.1-11.5-20.7-24.4-23.8c-20.8-5-57.1,4.1-91.1,46.1
	c-33.3,41.1-43.3,35.2-57.2,27c-7.1-4.2-15.3-9-28.5-8.7c-5.9,0.2-11.1,2.7-15.4,7.4C386.8,652.1,389.2,711.4,389.6,720.3
	L389.6,720.3z"/>
<ellipse class="st0" cx="372.7" cy="731.2" rx="372.7" ry="44.6"/>
<path class="st5" d="M380.9,147.4c0,0-18.6-6.7-30.6,20s-30.6,55.9-30.6,55.9l10.6,2.7c0,0,2.7-18.6,9.3-21.3l-2.7,24
	c0,0,79.8,27.9,115.8-2.7l-1.3-9.3c0,0,5.3,1.3,5.3,9.3l4-4c0,0-4-8-16-18.6c-7.9-7-10.6-20.3-11.5-28.6c-0.7-6.9-3.5-13.5-8-18.8
	C417.3,146.7,402.8,136.9,380.9,147.4z"/>
<path class="st6" d="M361.2,251.8l-19.3-24.1l-14.5-49.4l55.5-59.1c0,0,12.1-45.8,1.2-43.4S370.8,112,370.8,112l-70,54.3
	c0,0,7.2,76,27.7,102.5l15.7,49.4L361.2,251.8z"/>
<path class="st6" d="M414.3,251.8l19.3-24.1l14.5-49.4l-55.5-59.1c0,0-12.1-45.8-1.2-43.4s13.3,36.2,13.3,36.2l70,54.3
	c0,0-7.2,76-27.7,102.5l-15.7,49.4L414.3,251.8z"/>
<circle class="st6" cx="387.7" cy="199.9" r="31.4"/>
<path class="st6" d="M373.3,216.8c0,0,1.2,25.3-6,33.8s-14.5,51.9,20.5,53.1s31.4-36.2,31.4-36.2L412,247c0,0-10.9-15.7-7.2-30.2
	H373.3z"/>
<path class="st6" d="M340.7,497.8l25.9,7.8c0,0,21.1-12.7,21.1-0.6s-7.2,27.7-4.8,38.6s7.2,37.4,0,37.4s-21.7-47-21.7-47l-24.1-13.3
	L340.7,497.8z"/>
<path class="st6" d="M373.3,666.7l-9.6,37.4c0,0-8.4,10.9,0,15.7c4,2.3,6.9,6.9,8.8,11.2c3.5,7.9,11.6,12.8,20.3,12.3
	c4.1-0.3,7.6-2,8.4-6.2c0.5-2.7-0.2-5.4-1.9-7.6c-8.9-12-10.9-19.9-10.9-19.9l3.6-42.2L373.3,666.7z"/>
<path class="st5" d="M349.9,205.5c0,0,10.6-14.6,20-17.3s10.6-16,10.6-16s24,26.6,38.6,27.9s1.3-31.9,1.3-31.9l-26.6-6.7l-25.3,2.7
	l-20,13.3L349.9,205.5z"/>
<path class="st5" d="M329.9,406.2l-4.8,9.6c0,0-117,37.4-107.3,72.4s63.9,25.3,63.9,25.3l60.3,10.9l6-26.5L305.7,487l72.4-26.5
	l2.4,123l-9.6,88l24.1,2.4c0,0,26.5-80.8,22.9-114.6c0,0,44.6-137.5,19.3-158S329.9,406.2,329.9,406.2z"/>
<polygon class="st3" points="459.5,87.4 447.9,87.4 447.9,75.9 446.9,75.9 446.9,87.4 435.3,87.4 435.3,88.5 446.9,88.5 446.9,100 
	447.9,100 447.9,88.5 459.5,88.5 "/>
<polygon class="st3" points="349.6,63.2 338,63.2 338,51.7 337,51.7 337,63.2 325.4,63.2 325.4,64.3 337,64.3 337,75.9 338,75.9 
	338,64.3 349.6,64.3 "/>
<polygon class="st3" points="402.4,10.6 390.8,10.6 390.8,-1 389.7,-1 389.7,10.6 378.2,10.6 378.2,11.6 389.7,11.6 389.7,23.2 
	390.8,23.2 390.8,11.6 402.4,11.6 "/>
<image style="overflow:visible;" width="4398" height="2792" xlink:href="../../../../Downloads/undraw_fill_in_mie5.png"  transform="matrix(8.910274e-02 0 0 8.910274e-02 -105.5369 237.7126)">
</image>
</svg>
